<mxfile host="app.diagrams.net" modified="2021-02-22T22:30:20.810Z" agent="5.0 (Windows NT 6.3; Win64; x64) AppleWebKit/537.36 (KHTML, like Gecko) Chrome/88.0.4324.150 Safari/537.36" etag="PYiSzfDiJ2QoM19Two_g" version="14.3.0" type="github">
  <diagram id="YdzcT5ySs_J-2OnZzomK" name="Page-1">
    <mxGraphModel dx="868" dy="488" grid="1" gridSize="10" guides="1" tooltips="1" connect="1" arrows="1" fold="1" page="1" pageScale="1" pageWidth="827" pageHeight="1169" math="0" shadow="0">
      <root>
        <mxCell id="0" />
        <mxCell id="1" parent="0" />
        <mxCell id="Wrm_XXRNdpJJqClDuw_--3" value="" style="strokeWidth=1;shadow=0;dashed=0;align=center;html=1;shape=mxgraph.mockup.containers.browserWindow;rSize=0;strokeColor=#666666;strokeColor2=#008cff;strokeColor3=#c4c4c4;mainText=,;recursiveResize=0;" vertex="1" parent="1">
          <mxGeometry x="230" y="90" width="550" height="380" as="geometry" />
        </mxCell>
        <mxCell id="Wrm_XXRNdpJJqClDuw_--4" value="Page 1" style="strokeWidth=1;shadow=0;dashed=0;align=center;html=1;shape=mxgraph.mockup.containers.anchor;fontSize=17;fontColor=#666666;align=left;" vertex="1" parent="Wrm_XXRNdpJJqClDuw_--3">
          <mxGeometry x="60" y="12" width="110" height="26" as="geometry" />
        </mxCell>
        <mxCell id="Wrm_XXRNdpJJqClDuw_--5" value="https://www.wireframe.io" style="strokeWidth=1;shadow=0;dashed=0;align=center;html=1;shape=mxgraph.mockup.containers.anchor;rSize=0;fontSize=17;fontColor=#666666;align=left;" vertex="1" parent="Wrm_XXRNdpJJqClDuw_--3">
          <mxGeometry x="130" y="60" width="250" height="26" as="geometry" />
        </mxCell>
        <mxCell id="Wrm_XXRNdpJJqClDuw_--2" value="x=ingrandisci l&#39;immagine" style="strokeWidth=1;shadow=0;dashed=0;align=center;html=1;shape=mxgraph.mockup.buttons.button;strokeColor=#666666;fontColor=#ffffff;mainText=;buttonStyle=round;fontSize=17;fontStyle=1;fillColor=#008cff;whiteSpace=wrap;" vertex="1" parent="Wrm_XXRNdpJJqClDuw_--3">
          <mxGeometry x="84" y="150" width="150" height="50" as="geometry" />
        </mxCell>
        <mxCell id="Wrm_XXRNdpJJqClDuw_--12" style="edgeStyle=orthogonalEdgeStyle;rounded=0;orthogonalLoop=1;jettySize=auto;html=1;exitX=0.75;exitY=0;exitDx=0;exitDy=0;" edge="1" parent="Wrm_XXRNdpJJqClDuw_--3" source="Wrm_XXRNdpJJqClDuw_--11" target="Wrm_XXRNdpJJqClDuw_--2">
          <mxGeometry relative="1" as="geometry" />
        </mxCell>
        <mxCell id="Wrm_XXRNdpJJqClDuw_--11" value="Premendo questo bottone, l&#39;immagine si ingrandirÃ " style="text;html=1;strokeColor=none;fillColor=none;align=center;verticalAlign=middle;whiteSpace=wrap;rounded=0;" vertex="1" parent="Wrm_XXRNdpJJqClDuw_--3">
          <mxGeometry x="130" y="300" width="40" height="20" as="geometry" />
        </mxCell>
      </root>
    </mxGraphModel>
  </diagram>
</mxfile>
